<svg width="10" height="8" viewBox="0 0 10 8" fill="none" xmlns="http://www.w3.org/2000/svg">
<path fill-rule="evenodd" clip-rule="evenodd" d="M7.93932 0.816414C8.28487 0.46126 8.85036 0.461261 9.19592 0.816413C9.53476 1.16467 9.53476 1.72432 9.19592 2.07257L4.22295 7.18368C3.87739 7.53884 3.3119 7.53884 2.96634 7.18368L0.804179 4.96146C0.465339 4.61321 0.465339 4.05355 0.804179 3.7053C1.14973 3.35015 1.71523 3.35015 2.06078 3.7053L3.55881 5.24494C3.57844 5.26511 3.61085 5.26511 3.63048 5.24494L7.93932 0.816414ZM4.11203 6.00709L3.59464 6.53885L3.07726 6.00709C3.39077 6.21106 3.79852 6.21106 4.11203 6.00709Z" fill="white"/>
</svg>
