<svg width="28" height="28" viewBox="0 0 28 28" fill="none" xmlns="http://www.w3.org/2000/svg">
<path fill-rule="evenodd" clip-rule="evenodd" d="M21.0294 8.03778C21.3537 7.71347 21.3537 7.18766 21.0294 6.86335C20.7051 6.53904 20.1792 6.53904 19.8549 6.86335L13.9175 12.8007L7.98016 6.86336C7.65585 6.53905 7.13004 6.53905 6.80573 6.86336C6.48142 7.18767 6.48142 7.71348 6.80573 8.03779L12.7431 13.9752L6.80573 19.9126C6.48142 20.2369 6.48142 20.7627 6.80573 21.087C7.13004 21.4113 7.65585 21.4113 7.98016 21.087L13.9175 15.1496L19.8549 21.087C20.1792 21.4113 20.7051 21.4113 21.0294 21.087C21.3537 20.7627 21.3537 20.2369 21.0294 19.9126L15.092 13.9752L21.0294 8.03778Z" fill="#101A24"/>
<path fill-rule="evenodd" clip-rule="evenodd" d="M19.6698 6.67825C20.0963 6.25178 20.7878 6.25178 21.2142 6.67825C21.6407 7.10472 21.6407 7.79617 21.2142 8.22264L15.4618 13.9751L21.2142 19.7275C21.6407 20.1539 21.6407 20.8454 21.2142 21.2719C20.7878 21.6983 20.0963 21.6983 19.6698 21.2719L13.9174 15.5194L8.16502 21.2718C7.73855 21.6983 7.04711 21.6983 6.62063 21.2718C6.19416 20.8454 6.19416 20.1539 6.62063 19.7275L12.373 13.9751L6.62063 8.22265C6.19416 7.79618 6.19416 7.10474 6.62063 6.67827C7.0471 6.2518 7.73855 6.25179 8.16502 6.67827L13.9174 12.4307L19.6698 6.67825ZM20.8443 7.04821C20.6221 6.82606 20.2619 6.82606 20.0398 7.04821L13.9174 13.1706L7.79506 7.04822C7.57291 6.82608 7.21274 6.82608 6.99059 7.04822C6.76844 7.27037 6.76844 7.63055 6.99059 7.85269L13.113 13.9751L6.99059 20.0974C6.76844 20.3196 6.76844 20.6797 6.99059 20.9019C7.21274 21.124 7.57291 21.124 7.79506 20.9019L13.9174 14.7795L20.0398 20.9019C20.2619 21.1241 20.6221 21.1241 20.8443 20.9019C21.0664 20.6798 21.0664 20.3196 20.8443 20.0974L14.7219 13.9751L20.8443 7.85268C21.0664 7.63053 21.0664 7.27036 20.8443 7.04821Z" fill="#101A24"/>
</svg>
