<svg width="24" height="24" viewBox="0 0 24 24" fill="none" xmlns="http://www.w3.org/2000/svg">
<path d="M22 12C22 17.5228 17.5228 22 12 22C6.47715 22 2 17.5228 2 12C2 6.47715 6.47715 2 12 2C17.5228 2 22 6.47715 22 12Z" fill="#0C952A"/>
<path fill-rule="evenodd" clip-rule="evenodd" d="M16.5448 8.41393C16.8684 8.7147 16.887 9.22089 16.5862 9.54454L11.0105 15.5445C10.8591 15.7074 10.6468 15.8 10.4244 15.8C10.2021 15.8 9.98978 15.7074 9.83842 15.5445L7.41417 12.9358C7.11341 12.6122 7.13196 12.106 7.45561 11.8052C7.77926 11.5045 8.28545 11.523 8.58622 11.8467L10.4244 13.8248L15.4142 8.45537C15.7149 8.13171 16.2211 8.11316 16.5448 8.41393Z" fill="white"/>
</svg>
